<svg xmlns="http://www.w3.org/2000/svg" viewBox="0 0 29.39 38.88"><defs><style>.cls-1{fill:#353937;}</style></defs><title>img_status</title><g id="Layer_2" data-name="Layer 2"><g id="레이어_1" data-name="레이어 1"><path class="cls-1" d="M3.39,37.27v-.08c0-.47-.23-.63-1.29-.84C.86,36.08.17,35.68.17,34.7v-.12c0-.78.64-1.52,2.1-1.52a3.39,3.39,0,0,1,2,.56l-.44.75a2.53,2.53,0,0,0-1.48-.45c-.83,0-1.17.29-1.17.68v.09c0,.44.34.61,1.21.77,1.37.26,2,.67,2,1.71v.13c0,.88-.83,1.57-2.14,1.57A3.73,3.73,0,0,1,0,38.18l.46-.78a3.11,3.11,0,0,0,1.76.6C3,38,3.39,37.72,3.39,37.27Z"/><path class="cls-1" d="M5.95,34H5v-.85h.93V31.73h1v1.42H8.42V34H6.94v3.2c0,.69.3.8.72.8a2.13,2.13,0,0,0,.74-.13l.15.8a3.09,3.09,0,0,1-1,.19c-1.07,0-1.56-.52-1.56-1.66Z"/><path class="cls-1" d="M9.31,37.28V37c0-1,.61-1.62,2-1.62h1.43V35c0-.75-.34-1.11-1.16-1.11A2.75,2.75,0,0,0,10,34.5l-.49-.74A3.57,3.57,0,0,1,11.63,33c1.25,0,2.14.66,2.14,1.79v3.94h-1V38.1h0a1.3,1.3,0,0,1-.52.5,2.17,2.17,0,0,1-1.12.26C10,38.86,9.31,38.26,9.31,37.28Zm3.48-1.06H11.38c-.78,0-1.09.32-1.09.85v.14c0,.55.44.78,1,.78a1.72,1.72,0,0,0,1.14-.35,1,1,0,0,0,.38-.87Z"/><path class="cls-1" d="M15.69,34h-.93v-.85h.93V31.73h1v1.42h1.48V34H16.68v3.2c0,.69.3.8.72.8a2.12,2.12,0,0,0,.74-.13l.15.8a3.09,3.09,0,0,1-1,.19c-1.07,0-1.56-.52-1.56-1.66Z"/><path class="cls-1" d="M19.25,33.15h1v3.5c0,.95.37,1.35,1.2,1.35a1.35,1.35,0,0,0,1.4-1.36V33.15h1v5.63h-1v-.71h0a1.85,1.85,0,0,1-1.67.81,1.83,1.83,0,0,1-2-2Z"/><path class="cls-1" d="M28.38,37.27v-.08c0-.47-.23-.63-1.29-.84-1.24-.26-1.93-.66-1.93-1.65v-.12c0-.78.64-1.52,2.1-1.52a3.39,3.39,0,0,1,2,.56l-.44.75a2.53,2.53,0,0,0-1.48-.45c-.83,0-1.17.29-1.17.68v.09c0,.44.34.61,1.21.77,1.37.26,2,.67,2,1.71v.13c0,.88-.83,1.57-2.14,1.57A3.72,3.72,0,0,1,25,38.18l.46-.78a3.11,3.11,0,0,0,1.76.6C27.95,38,28.38,37.72,28.38,37.27Z"/><path class="cls-1" d="M26.25,4.07V1.45A1.51,1.51,0,0,0,24.69,0H4.13A1.41,1.41,0,0,0,2.67,1.36V23.41a1.51,1.51,0,0,0,1.56,1.45H24.69a1.51,1.51,0,0,0,1.56-1.45V12.54a.67.67,0,0,0,.46-.64V4.71A.68.68,0,0,0,26.25,4.07ZM23.56,5.4h1.78v5.82H23.56Zm1.32-3.95V4H23.56V1.37h1.13A.24.24,0,0,1,24.88,1.45ZM22.1,1.37c.05,0,.08,0,.09,0V4.7h0V11.9a.17.17,0,0,0,0,0v9a.16.16,0,0,1-.1,0H4V1.45a.23.23,0,0,1,.19-.09Zm2.59,22.12H4.23A.23.23,0,0,1,4,23.41V22.34H22.1A1.41,1.41,0,0,0,23.56,21V12.59h1.32V23.4A.21.21,0,0,1,24.69,23.49Z"/></g></g></svg>