<svg xmlns="http://www.w3.org/2000/svg" viewBox="0 0 25.94 38.89"><defs><style>.cls-1{fill:#353937;}</style></defs><title>img_home</title><g id="Layer_2" data-name="Layer 2"><g id="레이어_1" data-name="레이어 1"><path class="cls-1" d="M24,24.86H17.25a.65.65,0,0,1-.65-.65V17.45a3.63,3.63,0,0,0-7.26,0v6.76a.64.64,0,0,1-.65.65H1.92a.64.64,0,0,1-.65-.65v-13a.65.65,0,0,1,.2-.47L12.52.18a.64.64,0,0,1,.9,0l11.05,10.6a.65.65,0,0,1,.2.47v13A.65.65,0,0,1,24,24.86Zm-6.12-1.3h5.47v-12L13,1.54l-10.4,10v12H8V17.45a4.93,4.93,0,0,1,9.86,0Z"/><path class="cls-1" d="M4.64,38.8h-1v-3.5c0-.95-.39-1.35-1.22-1.35A1.37,1.37,0,0,0,1,35.32V38.8H0V31H1v2.83a1.89,1.89,0,0,1,1.67-.78,1.85,1.85,0,0,1,2,2Z"/><path class="cls-1" d="M10.89,35.64v.69a2.33,2.33,0,0,1-2.51,2.56,2.33,2.33,0,0,1-2.51-2.56v-.69a2.33,2.33,0,0,1,2.51-2.56A2.33,2.33,0,0,1,10.89,35.64Zm-1,.61v-.52c0-1.19-.61-1.77-1.5-1.77s-1.5.58-1.5,1.77v.52c0,1.19.61,1.77,1.5,1.77S9.88,37.44,9.88,36.24Z"/><path class="cls-1" d="M19.93,38.8h-1V35.43c0-1-.35-1.45-1.06-1.45a1.25,1.25,0,0,0-1.31,1.32V38.8h-1V35.43c0-1-.35-1.45-1.06-1.45a1.23,1.23,0,0,0-1.31,1.26V38.8h-1V33.18h1v.76h0a1.53,1.53,0,0,1,1.5-.86,1.69,1.69,0,0,1,1.61.94,1.93,1.93,0,0,1,1.75-.94,1.79,1.79,0,0,1,1.86,2Z"/><path class="cls-1" d="M25.81,38.27a3.63,3.63,0,0,1-2.17.62,2.31,2.31,0,0,1-2.47-2.59v-.64a2.32,2.32,0,0,1,2.42-2.58,2.25,2.25,0,0,1,2.36,2.52v.75H22.16v0A1.46,1.46,0,0,0,23.68,38a2.94,2.94,0,0,0,1.71-.5Zm-3.65-2.88v.14H25v-.19a1.31,1.31,0,0,0-1.39-1.42A1.39,1.39,0,0,0,22.16,35.39Z"/></g></g></svg>