<svg xmlns="http://www.w3.org/2000/svg" viewBox="0 0 49.32 38.73"><defs><style>.cls-1{fill:#8ec323;}</style></defs><title>img_simulation_clicked</title><g id="Layer_2" data-name="Layer 2"><g id="레이어_1" data-name="레이어 1"><path class="cls-1" d="M38.35,1.06A12.17,12.17,0,0,0,33.48,0a12.65,12.65,0,0,0-8.82,3.93A12.64,12.64,0,0,0,15.83,0,12.16,12.16,0,0,0,11,1.06a.69.69,0,0,0-.42.63V21.38a.69.69,0,0,0,.28.55.66.66,0,0,0,.61.11,15.89,15.89,0,0,1,3.93-.47,14.53,14.53,0,0,1,8.86,2.86.7.7,0,0,0,.84,0,14.53,14.53,0,0,1,8.86-2.86,15.83,15.83,0,0,1,3.93.47.67.67,0,0,0,.61-.11.7.7,0,0,0,.28-.55V1.7A.7.7,0,0,0,38.35,1.06ZM29.46,13.93H25.62v3.84a1,1,0,1,1-1.93,0V13.93H19.86a1,1,0,0,1,0-1.93h3.83V8.17a1,1,0,1,1,1.93,0V12h3.84a1,1,0,1,1,0,1.93Z"/><path class="cls-1" d="M3.39,37.12V37c0-.47-.23-.63-1.29-.84C.86,35.94.17,35.54.17,34.55v-.12c0-.78.64-1.52,2.1-1.52a3.39,3.39,0,0,1,2,.56l-.44.75a2.53,2.53,0,0,0-1.48-.45c-.83,0-1.17.29-1.17.68v.09c0,.44.34.61,1.21.77,1.37.26,2,.67,2,1.71v.13c0,.88-.83,1.57-2.14,1.57A3.72,3.72,0,0,1,0,38l.46-.78a3.11,3.11,0,0,0,1.76.6C3,37.85,3.39,37.57,3.39,37.12Z"/><path class="cls-1" d="M6.65,31v1.09H5.6V31Zm0,2v5.63h-1V33Z"/><path class="cls-1" d="M16,38.63H15V35.26c0-1-.35-1.45-1.06-1.45a1.25,1.25,0,0,0-1.31,1.32v3.51h-1V35.26c0-1-.35-1.45-1.06-1.45a1.23,1.23,0,0,0-1.31,1.26v3.56h-1V33h1v.76h0a1.53,1.53,0,0,1,1.5-.86,1.69,1.69,0,0,1,1.61.94,1.93,1.93,0,0,1,1.75-.94,1.79,1.79,0,0,1,1.86,2Z"/><path class="cls-1" d="M17.42,33h1v3.5c0,.95.37,1.35,1.2,1.35A1.35,1.35,0,0,0,21,36.49V33h1v5.63h-1v-.71h0a1.85,1.85,0,0,1-1.67.81,1.83,1.83,0,0,1-2-2Z"/><path class="cls-1" d="M24.62,30.86v7.78h-1V30.86Z"/><path class="cls-1" d="M25.94,37.13v-.28c0-1,.61-1.62,2-1.62h1.43V34.9c0-.75-.34-1.11-1.16-1.11a2.74,2.74,0,0,0-1.61.57l-.49-.74a3.58,3.58,0,0,1,2.12-.71c1.25,0,2.14.66,2.14,1.79v3.94h-1V38h0a1.31,1.31,0,0,1-.52.5,2.17,2.17,0,0,1-1.12.26C26.66,38.71,25.94,38.12,25.94,37.13Zm3.48-1.06H28c-.78,0-1.09.32-1.09.85v.14c0,.55.44.78,1,.78A1.72,1.72,0,0,0,29,37.5a1,1,0,0,0,.38-.87Z"/><path class="cls-1" d="M32.32,33.86h-.93V33h.93V31.59h1V33H34.8v.85H33.31v3.2c0,.69.3.8.72.8a2.12,2.12,0,0,0,.74-.13l.15.8a3.09,3.09,0,0,1-1,.19c-1.07,0-1.56-.52-1.56-1.66Z"/><path class="cls-1" d="M37,31v1.09H36V31Zm0,2v5.63H36V33Z"/><path class="cls-1" d="M43.36,35.46v.69a2.51,2.51,0,1,1-5,0v-.69a2.51,2.51,0,1,1,5,0Zm-1,.61v-.52c0-1.19-.61-1.77-1.5-1.77s-1.5.58-1.5,1.77v.52c0,1.19.61,1.77,1.5,1.77S42.35,37.26,42.35,36.07Z"/><path class="cls-1" d="M49.32,38.63h-1v-3.5c0-.95-.39-1.35-1.22-1.35a1.37,1.37,0,0,0-1.42,1.36v3.49h-1V33h1v.71h0a1.89,1.89,0,0,1,1.69-.81,1.85,1.85,0,0,1,2,2Z"/></g></g></svg>