<svg xmlns="http://www.w3.org/2000/svg" viewBox="0 0 49.56 38.93"><defs><style>.cls-1{fill:#353937;}</style></defs><title>img_simulation</title><g id="Layer_2" data-name="Layer 2"><g id="레이어_1" data-name="레이어 1"><path class="cls-1" d="M3.41,37.31v-.08c0-.48-.23-.63-1.29-.85C.87,36.12.18,35.71.18,34.72V34.6c0-.79.64-1.53,2.11-1.53a3.41,3.41,0,0,1,2,.56l-.44.75a2.54,2.54,0,0,0-1.49-.45c-.84,0-1.18.29-1.18.68v.09c0,.44.34.61,1.22.78,1.37.26,2,.67,2,1.72v.13c0,.89-.84,1.58-2.15,1.58A3.74,3.74,0,0,1,0,38.23l.47-.79a3.13,3.13,0,0,0,1.77.6C3,38,3.41,37.76,3.41,37.31Z"/><path class="cls-1" d="M6.69,31.15v1.1H5.62v-1.1Zm0,2v5.65h-1V33.17Z"/><path class="cls-1" d="M16.06,38.82h-1V35.43c0-1-.35-1.46-1.06-1.46a1.26,1.26,0,0,0-1.31,1.32v3.52h-1V35.43c0-1-.35-1.46-1.06-1.46A1.24,1.24,0,0,0,9.3,35.25v3.58h-1V33.17h1v.77h0a1.54,1.54,0,0,1,1.51-.87,1.7,1.7,0,0,1,1.62.94,1.94,1.94,0,0,1,1.76-.94,1.8,1.8,0,0,1,1.87,2Z"/><path class="cls-1" d="M17.51,33.17h1v3.51c0,1,.37,1.35,1.21,1.35a1.36,1.36,0,0,0,1.41-1.36v-3.5h1v5.65h-1v-.71h0a1.86,1.86,0,0,1-1.67.82,1.84,1.84,0,0,1-2-2Z"/><path class="cls-1" d="M24.75,31v7.81h-1V31Z"/><path class="cls-1" d="M26.07,37.32V37c0-1,.61-1.63,2.06-1.63h1.44v-.33c0-.76-.34-1.12-1.17-1.12a2.76,2.76,0,0,0-1.62.57l-.5-.74a3.59,3.59,0,0,1,2.13-.71c1.26,0,2.15.66,2.15,1.8v4h-1v-.68h0a1.31,1.31,0,0,1-.53.51,2.18,2.18,0,0,1-1.13.26C26.79,38.91,26.07,38.31,26.07,37.32Zm3.49-1.06H28.15c-.79,0-1.1.32-1.1.86v.14c0,.55.44.79,1,.79a1.73,1.73,0,0,0,1.15-.35,1,1,0,0,0,.38-.88Z"/><path class="cls-1" d="M32.48,34h-.93v-.86h.93V31.75h1v1.43H35V34H33.48v3.21c0,.69.3.81.72.81a2.14,2.14,0,0,0,.74-.13l.16.81a3.1,3.1,0,0,1-1.05.19c-1.08,0-1.57-.53-1.57-1.66Z"/><path class="cls-1" d="M37.21,31.15v1.1H36.15v-1.1Zm0,2v5.65h-1V33.17Z"/><path class="cls-1" d="M43.58,35.64v.69a2.52,2.52,0,1,1-5,0v-.69a2.52,2.52,0,1,1,5,0Zm-1,.61v-.53c0-1.2-.61-1.78-1.51-1.78s-1.51.58-1.51,1.78v.53c0,1.2.61,1.78,1.51,1.78S42.57,37.45,42.57,36.25Z"/><path class="cls-1" d="M49.56,38.82h-1V35.31c0-1-.39-1.35-1.23-1.35a1.37,1.37,0,0,0-1.43,1.36v3.5h-1V33.17h1v.71h0a1.9,1.9,0,0,1,1.7-.82,1.86,1.86,0,0,1,2,2Z"/><path class="cls-1" d="M29.6,12.34H25.48V8.21a.7.7,0,1,0-1.39,0v4.13H20a.7.7,0,0,0,0,1.39h4.12v4.13a.7.7,0,1,0,1.39,0V13.73H29.6a.7.7,0,0,0,0-1.39Z"/><path class="cls-1" d="M24.78,24.69a.68.68,0,0,1-.42-.14,14.61,14.61,0,0,0-8.91-2.87,16,16,0,0,0-4,.47.67.67,0,0,1-.61-.11.69.69,0,0,1-.28-.55V1.71A.69.69,0,0,1,11,1.07,12.22,12.22,0,0,1,15.91,0a12.71,12.71,0,0,1,8.87,4,12.71,12.71,0,0,1,8.87-4,12.23,12.23,0,0,1,4.89,1.07.7.7,0,0,1,.42.64V21.49a.7.7,0,0,1-.28.55.67.67,0,0,1-.62.11,15.91,15.91,0,0,0-4-.47,14.61,14.61,0,0,0-8.9,2.87A.69.69,0,0,1,24.78,24.69Zm-9.33-4.41a16.08,16.08,0,0,1,9.33,2.85,16.09,16.09,0,0,1,9.33-2.85,18.35,18.35,0,0,1,3.45.33V2.17a10.72,10.72,0,0,0-3.91-.78c-5,0-8.29,4-8.32,4a.72.72,0,0,1-1.09,0s-3.29-4-8.32-4A10.72,10.72,0,0,0,12,2.17V20.61A18.42,18.42,0,0,1,15.45,20.28Z"/></g></g></svg>