<svg xmlns="http://www.w3.org/2000/svg" viewBox="0 0 29.44 38.95"><defs><style>.cls-1{fill:#8ec323;}</style></defs><title>img_status_clicked</title><g id="Layer_2" data-name="Layer 2"><g id="레이어_1" data-name="레이어 1"><path class="cls-1" d="M3.4,37.33v-.08c0-.47-.23-.63-1.29-.84C.87,36.15.18,35.75.18,34.76v-.12c0-.78.64-1.52,2.1-1.52a3.4,3.4,0,0,1,2,.56l-.44.75A2.54,2.54,0,0,0,2.35,34c-.83,0-1.17.29-1.17.68v.09c0,.44.34.61,1.22.77,1.37.26,2,.67,2,1.71v.13c0,.89-.83,1.58-2.14,1.58A3.73,3.73,0,0,1,0,38.25l.46-.78a3.12,3.12,0,0,0,1.76.6C3,38.07,3.4,37.79,3.4,37.33Z"/><path class="cls-1" d="M6,34.07H5v-.86H6V31.79H7v1.42H8.44v.86H7v3.2c0,.69.3.8.72.8a2.13,2.13,0,0,0,.74-.13l.15.8a3.09,3.09,0,0,1-1.05.19C6.45,38.93,6,38.41,6,37.27Z"/><path class="cls-1" d="M9.33,37.34v-.28c0-1,.61-1.63,2.05-1.63h1.43v-.33c0-.75-.34-1.11-1.16-1.11a2.75,2.75,0,0,0-1.62.57l-.49-.74a3.58,3.58,0,0,1,2.12-.71c1.26,0,2.14.66,2.14,1.79v3.95h-1v-.68h0a1.31,1.31,0,0,1-.53.5,2.18,2.18,0,0,1-1.12.26C10,38.93,9.33,38.33,9.33,37.34Zm3.48-1.06H11.4c-.78,0-1.09.32-1.09.86v.14c0,.55.44.78,1,.78a1.72,1.72,0,0,0,1.14-.35,1,1,0,0,0,.38-.88Z"/><path class="cls-1" d="M15.71,34.07h-.93v-.86h.93V31.79h1v1.42H18.2v.86H16.71v3.2c0,.69.3.8.72.8a2.13,2.13,0,0,0,.74-.13l.15.8a3.09,3.09,0,0,1-1.05.19c-1.07,0-1.57-.53-1.57-1.66Z"/><path class="cls-1" d="M19.29,33.21h1v3.5c0,.95.37,1.35,1.21,1.35a1.35,1.35,0,0,0,1.4-1.36V33.21h1v5.64h-1v-.71h0a1.85,1.85,0,0,1-1.67.81,1.84,1.84,0,0,1-2-2Z"/><path class="cls-1" d="M28.43,37.33v-.08c0-.47-.23-.63-1.29-.84-1.25-.26-1.94-.66-1.94-1.65v-.12c0-.78.64-1.52,2.1-1.52a3.4,3.4,0,0,1,2,.56l-.44.75A2.54,2.54,0,0,0,27.38,34c-.83,0-1.17.29-1.17.68v.09c0,.44.34.61,1.22.77,1.37.26,2,.67,2,1.71v.13c0,.89-.83,1.58-2.14,1.58A3.73,3.73,0,0,1,25,38.25l.46-.78a3.12,3.12,0,0,0,1.76.6C28,38.07,28.43,37.79,28.43,37.33Z"/><path class="cls-1" d="M26.3,4.08V1.45A1.52,1.52,0,0,0,24.73,0H4.14A1.41,1.41,0,0,0,2.68,1.36V23.45a1.52,1.52,0,0,0,1.56,1.46H24.73a1.52,1.52,0,0,0,1.56-1.46V12.56a.67.67,0,0,0,.46-.64V4.72A.68.68,0,0,0,26.3,4.08ZM24.93,1.45V4H23.6V1.37h1.13A.24.24,0,0,1,24.93,1.45Zm-.19,22.08H4.24A.23.23,0,0,1,4,23.45V22.38h18.1A1.41,1.41,0,0,0,23.6,21V12.61h1.32V23.45A.21.21,0,0,1,24.73,23.53Z"/></g></g></svg>