<svg xmlns="http://www.w3.org/2000/svg" viewBox="0 0 39.6 39.88"><defs><style>.cls-1{fill:#353937;}</style></defs><title>img_mypage</title><g id="Layer_2" data-name="Layer 2"><g id="레이어_1" data-name="레이어 1"><path class="cls-1" d="M7.72,37.55h-1V34.18c0-1-.35-1.45-1.06-1.45A1.25,1.25,0,0,0,4.36,34v3.51h-1V34.18c0-1-.35-1.45-1.06-1.45A1.23,1.23,0,0,0,1,34v3.56H0V31.93H1v.76H1a1.53,1.53,0,0,1,1.5-.86,1.69,1.69,0,0,1,1.61.94,1.93,1.93,0,0,1,1.75-.94,1.79,1.79,0,0,1,1.86,2Z"/><path class="cls-1" d="M11.16,36.42l1.48-4.49h1l-2.92,7.95-.9-.32.73-1.92-2-5.71H9.63l1.49,4.49Z"/><path class="cls-1" d="M18.13,32.63a1.8,1.8,0,0,1,1.65-.8A2.1,2.1,0,0,1,22,34.22v1a2.16,2.16,0,0,1-2.25,2.42,1.81,1.81,0,0,1-1.55-.7v2.82h-1V31.93h1Zm0,2.92a1.4,1.4,0,0,0,1.48,1.21c.84,0,1.35-.63,1.35-1.69v-.69c0-1.07-.51-1.69-1.35-1.69a1.41,1.41,0,0,0-1.48,1.43Z"/><path class="cls-1" d="M23,36.05v-.28c0-1,.61-1.62,2-1.62h1.43v-.33c0-.75-.34-1.11-1.16-1.11a2.74,2.74,0,0,0-1.61.57l-.49-.74a3.57,3.57,0,0,1,2.12-.71c1.26,0,2.14.66,2.14,1.79v3.94h-1v-.68h0a1.3,1.3,0,0,1-.52.5,2.17,2.17,0,0,1-1.12.26C23.68,37.64,23,37,23,36.05ZM26.43,35H25c-.78,0-1.09.32-1.09.85V36c0,.55.44.78,1,.78a1.72,1.72,0,0,0,1.14-.35,1,1,0,0,0,.38-.87Z"/><path class="cls-1" d="M33.51,37.48c0,1.57-.85,2.37-2.51,2.37a3,3,0,0,1-1.87-.6l.45-.78a2.46,2.46,0,0,0,1.45.47,1.3,1.3,0,0,0,1.48-1.46v-.69a1.77,1.77,0,0,1-1.61.74c-1.42,0-2.19-.87-2.19-2.4v-.9a2.18,2.18,0,0,1,2.23-2.42,1.82,1.82,0,0,1,1.57.69v-.59h1Zm-1-3.59A1.38,1.38,0,0,0,31,32.7c-.84,0-1.35.63-1.35,1.69V35c0,1.07.51,1.69,1.35,1.69a1.4,1.4,0,0,0,1.48-1.42Z"/><path class="cls-1" d="M39.47,37a3.63,3.63,0,0,1-2.17.62A2.31,2.31,0,0,1,34.83,35v-.64a2.32,2.32,0,0,1,2.42-2.58,2.25,2.25,0,0,1,2.36,2.52v.75H35.81v0a1.46,1.46,0,0,0,1.52,1.64,2.94,2.94,0,0,0,1.71-.5Zm-3.65-2.88v.14h2.82V34.1a1.31,1.31,0,0,0-1.39-1.42A1.39,1.39,0,0,0,35.81,34.14Z"/><path class="cls-1" d="M19.8,12.77a6.39,6.39,0,1,1,6.39-6.39A6.4,6.4,0,0,1,19.8,12.77Zm0-11.48a5.09,5.09,0,1,0,5.09,5.09A5.1,5.1,0,0,0,19.8,1.3Z"/><path class="cls-1" d="M32,22.41a.65.65,0,0,1-.64-.56,7.86,7.86,0,0,0-7.82-6.73H16.09a7.87,7.87,0,0,0-7.82,6.73A.65.65,0,0,1,7,21.68a9.16,9.16,0,0,1,9.11-7.85h7.42a9.16,9.16,0,0,1,9.1,7.85.64.64,0,0,1-.55.72Z"/></g></g></svg>