<svg xmlns="http://www.w3.org/2000/svg" xmlns:xlink="http://www.w3.org/1999/xlink" viewBox="0 0 174.76 132.76"><defs><style>.cls-1{fill:url(#linear-gradient);}.cls-2{fill:#3b3e3d;}</style><linearGradient id="linear-gradient" x1="28.57" y1="18.2" x2="144.94" y2="49.52" gradientUnits="userSpaceOnUse"><stop offset="0" stop-color="#8fc31f"/><stop offset="0.57" stop-color="#61bd99"/><stop offset="1" stop-color="#43bff0"/></linearGradient></defs><title>img_logo_big</title><g id="Layer_2" data-name="Layer 2"><g id="레이어_1" data-name="레이어 1"><path class="cls-1" d="M141.22,29.34,120.38,17.59a4.52,4.52,0,0,0-4-.24l-15.12,6.28a4.52,4.52,0,0,0-2.78,4.18V45.18L86,50.38,45,27.26,89.75,8.7A4.52,4.52,0,1,0,86.29.35L33,22.47a4.52,4.52,0,0,0-.48,8.11l51,28.75a4.5,4.5,0,0,0,3.95.24L98.53,55v13a4.52,4.52,0,0,0,9,0V51.21l33.16-13.77a4.51,4.51,0,0,0,.49-8.11ZM107.57,41.42V30.82l10.3-4.28,10.84,6.12Z"/><path class="cls-2" d="M22.5,98.26H12.95V96.55h3.6V94.91h2.34v1.64h3.63Zm-4.78,6.48c-2.33,0-4-1.2-4-3s1.66-3,4-3,4,1.22,4,3S20,104.74,17.72,104.74Zm-.14,3.54h8.72V110h-11v-4.46h2.33Zm.14-5.21c1,0,1.76-.45,1.76-1.3s-.74-1.29-1.76-1.29-1.76.45-1.76,1.29S16.68,103.07,17.72,103.07Zm10.15-3.46v1.82H25.72v5H23.4V94.93h2.33v4.69Z"/><path class="cls-2" d="M43.86,102.16v1.75H29.18v-1.75h6.17v-1.27H31V95.58H42.1v1.75H33.27v1.8h8.92v1.75H37.67v1.27ZM42.1,107.5c0,1.8-2.13,2.82-5.64,2.82s-5.62-1-5.62-2.82,2.11-2.84,5.62-2.84S42.1,105.68,42.1,107.5Zm-2.36,0c0-.8-1.11-1.17-3.28-1.17s-3.28.37-3.28,1.17,1.11,1.15,3.28,1.15S39.73,108.3,39.73,107.5Z"/><path class="cls-2" d="M48.12,105a28.86,28.86,0,0,0,4.44-.38l.18,1.79a31.39,31.39,0,0,1-5.78.42H45.83V96.7h6v1.79H48.12ZM59.3,94.91V110.3h-2.2v-7.7H55.63v7H53.46V95.21h2.17v5.63h1.46V94.91Z"/><path class="cls-2" d="M71.14,98H61.59V96.28h3.6V94.84h2.34v1.44h3.61Zm-4.78,6.14c-2.33,0-4-1.15-4-2.84s1.66-2.82,4-2.82,4,1.15,4,2.82S68.71,104.16,66.36,104.16Zm-2.82,1H74.36v5.13H72V107H63.54Zm2.82-2.7c1,0,1.76-.38,1.76-1.17s-.72-1.15-1.76-1.15-1.76.38-1.76,1.15S65.31,102.49,66.36,102.49Zm10.15-1.79H74.36v3.86H72V94.93h2.33v4h2.15Z"/><path class="cls-2" d="M92.5,106.68v1.77H77.8v-1.77h3.08v-4.86h2.29v4.86H84.9v-4.86h2.27v4.86Zm-4.21-2.05A32.87,32.87,0,0,0,88.83,98h-9.6V96.24H91.16v1.49a37,37,0,0,1-.55,7.11Z"/><path class="cls-2" d="M112.11,105.08h-6.22v5.24h-2.33v-5.24H97.45v-1.79h14.66Zm-1.41-2.92a8,8,0,0,1-5.9-3.31,8.07,8.07,0,0,1-5.92,3.31L98,100.39c3.7-.48,5.55-2.47,5.55-4.27v-.73H106v.73c0,1.79,1.87,3.79,5.55,4.27Z"/><path class="cls-2" d="M122,95.93c0,4.14-2.71,7-7.51,8.26l-.93-1.77c3.54-.9,5.53-2.64,5.89-4.74h-5.13V95.93Zm4.63,11.24c0,1.94-2.17,3.16-5.45,3.16s-5.45-1.22-5.45-3.16,2.17-3.16,5.45-3.16S126.6,105.24,126.6,107.16Zm-2.29,0c0-1-1.18-1.44-3.15-1.44s-3.15.48-3.15,1.44,1.18,1.44,3.15,1.44S124.31,108.12,124.31,107.16Zm4.26-8.65v1.82h-2.15v3.47H124.1v-8.9h2.33v3.61Z"/><path class="cls-2" d="M139.16,103.87a60.1,60.1,0,0,1-9.06.53l-.25-1.79h1.69V97.78h-1.29V96h8.56v1.75h-1.29v4.62c.51,0,1-.08,1.48-.13Zm4.63,4.41V110H132.73v-4.62h2.33v2.87Zm-10-5.71c.49,0,1,0,1.52,0V97.78h-1.52Zm7.31-.08h-2v-1.77h2V99.38h-2V97.61h2V94.93h2.33v11.34H141.1Z"/><path class="cls-2" d="M155.61,103.06a41.21,41.21,0,0,1-7.56.47h-1.39V98.73h5.09V97.45h-5.11V95.69H154v4.68H149v1.39a36.81,36.81,0,0,0,6.45-.47Zm-7.33,1.65h10.57v5.43H148.27Zm2.29,3.69h6v-2h-6Zm10.43-8h-2.15v3.72h-2.33V94.93h2.33v3.62H161Z"/><path class="cls-2" d="M0,120.34H2V124H5.71v-3.68h2v9.35h-2v-4H2v4H0Z"/><path class="cls-2" d="M9.56,127.77c0-1.52,1.29-2.31,4.29-2.62a1.13,1.13,0,0,0-1.27-1.23,4.38,4.38,0,0,0-2.05.67l-.71-1.23a6.2,6.2,0,0,1,3.12-.93c1.89,0,2.87,1.07,2.87,3.12v4.13h-1.6l-.15-.76h0a3.61,3.61,0,0,1-2.25.94A2.07,2.07,0,0,1,9.56,127.77Zm4.29-.05v-1.43c-1.81.23-2.43.69-2.43,1.33s.41.8,1,.8A2,2,0,0,0,13.86,127.72Z"/><path class="cls-2" d="M17.82,122.62h1.6l.13.94h.05A3.52,3.52,0,0,1,22,122.44c1.61,0,2.31,1.06,2.31,2.84v4.41h-2v-4.18c0-1.09-.32-1.48-1.05-1.48a2.18,2.18,0,0,0-1.56.8v4.86H17.82Z"/><path class="cls-2" d="M25.94,126.17c0-2.31,1.52-3.73,3.13-3.73a2.64,2.64,0,0,1,1.89.77l-.08-1.11v-2.49h2v10.08H31.26L31.1,129h0a3.17,3.17,0,0,1-2.07.91C27.14,129.87,25.94,128.48,25.94,126.17Zm4.95,1.44V124.5A2,2,0,0,0,29.5,124c-.84,0-1.55.76-1.55,2.17s.56,2.2,1.55,2.2A1.69,1.69,0,0,0,30.89,127.61Z"/><path class="cls-2" d="M34.49,126.17a3.59,3.59,0,1,1,3.59,3.7A3.54,3.54,0,0,1,34.49,126.17Zm5.18,0c0-1.34-.57-2.21-1.59-2.21s-1.59.87-1.59,2.21.57,2.19,1.59,2.19S39.66,127.5,39.66,126.17Z"/><path class="cls-2" d="M43.3,122.62h1.6l.13.94h.05a3.52,3.52,0,0,1,2.43-1.11c1.61,0,2.31,1.06,2.31,2.84v4.41h-2v-4.18c0-1.09-.32-1.48-1.05-1.48a2.18,2.18,0,0,0-1.56.8v4.86H43.3Z"/><path class="cls-2" d="M51.36,130.94a1.72,1.72,0,0,1,1.07-1.47v-.06a1.33,1.33,0,0,1-.68-1.19,1.74,1.74,0,0,1,.83-1.33v-.05a2.3,2.3,0,0,1-1-1.84c0-1.67,1.43-2.56,3-2.56a3.7,3.7,0,0,1,1.12.18h2.69V124H57.13a1.72,1.72,0,0,1,.35,1.07c0,1.59-1.28,2.4-2.88,2.4a3.34,3.34,0,0,1-1-.16.69.69,0,0,0-.32.61c0,.38.29.58,1.17.58h1.27c1.8,0,2.77.53,2.77,1.77,0,1.43-1.56,2.51-4.05,2.51C52.72,132.76,51.36,132.2,51.36,130.94Zm5.31-.38c0-.51-.44-.63-1.24-.63h-.91a4.46,4.46,0,0,1-1-.1,1,1,0,0,0-.49.82c0,.59.69.93,1.79.93S56.67,131.12,56.67,130.57ZM55.76,125a1.17,1.17,0,1,0-2.33,0,1.17,1.17,0,1,0,2.33,0Z"/><path class="cls-2" d="M62.51,125.06a4.58,4.58,0,0,1,4.74-4.89,4.27,4.27,0,0,1,3.05,1.2l-1.05,1.19a2.66,2.66,0,0,0-1.93-.78c-1.64,0-2.79,1.21-2.79,3.22s1,3.26,2.92,3.26a2.07,2.07,0,0,0,1.24-.35v-1.84H66.93v-1.53h3.51v4.22a4.8,4.8,0,0,1-3.2,1.12A4.47,4.47,0,0,1,62.51,125.06Z"/><path class="cls-2" d="M72.4,127.71v-8.1h1.95v8.19c0,.42.21.56.4.56a1.16,1.16,0,0,0,.27,0l.24,1.38a2.8,2.8,0,0,1-1,.16C72.88,129.87,72.4,129,72.4,127.71Z"/><path class="cls-2" d="M76.14,126.17a3.59,3.59,0,1,1,3.59,3.7A3.54,3.54,0,0,1,76.14,126.17Zm5.18,0c0-1.34-.57-2.21-1.59-2.21s-1.59.87-1.59,2.21.57,2.19,1.59,2.19S81.31,127.5,81.31,126.17Z"/><path class="cls-2" d="M86.7,128.95h0l-.17.75H85V119.61H86.9v2.54l0,1.14a3.28,3.28,0,0,1,2.07-.85c1.84,0,2.95,1.43,2.95,3.59,0,2.44-1.53,3.84-3.17,3.84A3,3,0,0,1,86.7,128.95Zm3.16-2.88c0-1.35-.45-2.1-1.48-2.1a2.15,2.15,0,0,0-1.48.73v3.11a2.13,2.13,0,0,0,1.36.53C89.17,128.34,89.86,127.61,89.86,126.07Z"/><path class="cls-2" d="M93,127.77c0-1.52,1.29-2.31,4.29-2.62A1.13,1.13,0,0,0,96,123.93a4.38,4.38,0,0,0-2.05.67l-.71-1.23a6.2,6.2,0,0,1,3.12-.93c1.89,0,2.87,1.07,2.87,3.12v4.13h-1.6l-.15-.76h0a3.61,3.61,0,0,1-2.25.94A2.07,2.07,0,0,1,93,127.77Zm4.29-.05v-1.43c-1.81.23-2.43.69-2.43,1.33s.41.8,1,.8A2,2,0,0,0,97.28,127.72Z"/><path class="cls-2" d="M101.24,127.71v-8.1h1.95v8.19c0,.42.21.56.4.56a1.16,1.16,0,0,0,.27,0l.24,1.38a2.8,2.8,0,0,1-1,.16C101.72,129.87,101.24,129,101.24,127.71Z"/><path class="cls-2" d="M108.57,125.49v-5.14h2v5.31c0,1.95.71,2.6,1.87,2.6s1.92-.66,1.92-2.6v-5.31h1.89v5.14c0,3.11-1.4,4.38-3.81,4.38S108.57,128.59,108.57,125.49Z"/><path class="cls-2" d="M118.44,122.62H120l.13.94h.05a3.52,3.52,0,0,1,2.43-1.11c1.61,0,2.31,1.06,2.31,2.84v4.41h-2v-4.18c0-1.09-.32-1.48-1.05-1.48a2.18,2.18,0,0,0-1.56.8v4.86h-1.95Z"/><path class="cls-2" d="M126.8,120.47a1.18,1.18,0,1,1,1.17,1A1.07,1.07,0,0,1,126.8,120.47Zm.19,2.15h1.95v7.08H127Z"/><path class="cls-2" d="M130.17,122.62h2l1.09,3.53c.19.69.4,1.43.6,2.15h.07c.19-.72.4-1.45.6-2.15l1.09-3.53h1.88L135,129.69h-2.27Z"/><path class="cls-2" d="M138.15,126.17a3.54,3.54,0,0,1,3.48-3.73c2.05,0,3.12,1.43,3.12,3.39a3.28,3.28,0,0,1-.09.85h-4.6a1.93,1.93,0,0,0,2.07,1.77,3.2,3.2,0,0,0,1.68-.49l.67,1.14a4.9,4.9,0,0,1-2.61.78A3.52,3.52,0,0,1,138.15,126.17Zm4.92-.72c0-1-.45-1.57-1.41-1.57a1.64,1.64,0,0,0-1.63,1.57Z"/><path class="cls-2" d="M146.36,122.62H148l.13,1.25h.05a2.59,2.59,0,0,1,2.12-1.43,2.21,2.21,0,0,1,.88.15l-.35,1.6a2.47,2.47,0,0,0-.77-.11,1.94,1.94,0,0,0-1.72,1.39v4.22h-1.95Z"/><path class="cls-2" d="M151.37,128.87l.89-1.16a3.34,3.34,0,0,0,2,.77c.75,0,1.08-.3,1.08-.75s-.77-.77-1.56-1.06c-.95-.34-2-.88-2-2.06s1.09-2.17,2.77-2.17a4.32,4.32,0,0,1,2.55.87l-.88,1.12a3,3,0,0,0-1.61-.61c-.67,0-1,.28-1,.68s.73.71,1.52,1c1,.35,2.08.82,2.08,2.14s-1,2.24-3,2.24A4.86,4.86,0,0,1,151.37,128.87Z"/><path class="cls-2" d="M158.49,120.47a1.18,1.18,0,1,1,1.17,1A1.07,1.07,0,0,1,158.49,120.47Zm.19,2.15h1.95v7.08h-1.95Z"/><path class="cls-2" d="M163,127.22v-3.13H162v-1.38l1.15-.09.23-1.9H165v1.9h1.84v1.47H165v3.13c0,.81.35,1.19,1,1.19a2.29,2.29,0,0,0,.73-.15l.32,1.35a5.07,5.07,0,0,1-1.57.27C163.69,129.87,163,128.81,163,127.22Z"/><path class="cls-2" d="M168,132.4l.36-1.43a2.12,2.12,0,0,0,.52.09,1.41,1.41,0,0,0,1.4-1.07l.13-.42-2.91-6.95h2l1.19,3.28c.23.63.41,1.31.63,2h.07l.53-2,1-3.28h1.88l-2.65,7.29c-.65,1.67-1.45,2.63-3.12,2.63A3.32,3.32,0,0,1,168,132.4Z"/></g></g></svg>