<svg xmlns="http://www.w3.org/2000/svg" viewBox="0 0 26.07 39.08"><defs><style>.cls-1{fill:#8ec323;}</style></defs><title>img_home_clicked</title><g id="Layer_2" data-name="Layer 2"><g id="레이어_1" data-name="레이어 1"><path class="cls-1" d="M24.14,25H17.33a.65.65,0,0,1-.65-.65v-6.8a3.65,3.65,0,0,0-7.3,0v6.8a.65.65,0,0,1-.65.65H1.93a.65.65,0,0,1-.65-.65v-13a.65.65,0,0,1,.2-.47L12.58.18a.65.65,0,0,1,.9,0L24.59,10.84a.65.65,0,0,1,.2.47v13A.65.65,0,0,1,24.14,25Z"/><path class="cls-1" d="M4.66,39h-1V35.48c0-1-.39-1.35-1.23-1.35A1.37,1.37,0,0,0,1,35.49V39H0V31.18H1V34a1.9,1.9,0,0,1,1.67-.79,1.86,1.86,0,0,1,2,2Z"/><path class="cls-1" d="M10.95,35.81v.69a2.35,2.35,0,0,1-2.52,2.57A2.35,2.35,0,0,1,5.9,36.51v-.69a2.34,2.34,0,0,1,2.52-2.57A2.34,2.34,0,0,1,10.95,35.81Zm-1,.61V35.9c0-1.2-.61-1.78-1.51-1.78s-1.51.58-1.51,1.78v.53c0,1.2.61,1.78,1.51,1.78S9.93,37.62,9.93,36.42Z"/><path class="cls-1" d="M20,39H19V35.61c0-1-.35-1.46-1.06-1.46a1.26,1.26,0,0,0-1.31,1.32V39h-1V35.61c0-1-.35-1.46-1.06-1.46a1.24,1.24,0,0,0-1.31,1.27V39h-1V33.34h1v.77h0a1.54,1.54,0,0,1,1.51-.87,1.7,1.7,0,0,1,1.62.94,1.94,1.94,0,0,1,1.76-.94,1.8,1.8,0,0,1,1.87,2Z"/><path class="cls-1" d="M25.94,38.46a3.65,3.65,0,0,1-2.18.62,2.32,2.32,0,0,1-2.48-2.61v-.64a2.33,2.33,0,0,1,2.43-2.59,2.26,2.26,0,0,1,2.37,2.53v.75h-3.8v0a1.47,1.47,0,0,0,1.53,1.64,3,3,0,0,0,1.72-.51Zm-3.67-2.89v.14H25.1v-.19a1.32,1.32,0,0,0-1.4-1.43A1.39,1.39,0,0,0,22.27,35.57Z"/></g></g></svg>