<svg xmlns="http://www.w3.org/2000/svg" xmlns:xlink="http://www.w3.org/1999/xlink" viewBox="0 0 360 640"><defs><style>.cls-1{fill:url(#linear-gradient);}.cls-2{fill:#d3d3d2;}.cls-3{fill:none;}</style><linearGradient id="linear-gradient" x1="112.31" y1="154.71" x2="261.98" y2="194.99" gradientUnits="userSpaceOnUse"><stop offset="0" stop-color="#8fc31f"/><stop offset="0.57" stop-color="#61bd99"/><stop offset="1" stop-color="#43bff0"/></linearGradient></defs><title>img_splash</title><g id="Layer_2" data-name="Layer 2"><g id="레이어_1" data-name="레이어 1"><path class="cls-1" d="M200.65,137.7a5.25,5.25,0,0,1,5.89,2.44,1.09,1.09,0,0,1-.41,1.51,1.13,1.13,0,0,1-1.51-.41,3,3,0,0,0-5.64,1.51v11.7a3,3,0,1,0,6.06,0v-4.41h-2.34a1.1,1.1,0,0,1,0-2.2h3.44a1.09,1.09,0,0,1,1.1,1.1v5.51a5.23,5.23,0,1,1-10.46,0v-11.7A5.27,5.27,0,0,1,200.65,137.7Zm17.93,12,3.17,8.54a1.1,1.1,0,0,1-2.07.76l-3.3-8.92h-2.82v8.54a1.09,1.09,0,0,1-1.1,1.1,1.11,1.11,0,0,1-1.1-1.1V138.77a1.11,1.11,0,0,1,1.1-1.1h4.13a5.23,5.23,0,0,1,5.23,5.23v1.93A5.25,5.25,0,0,1,218.59,149.68Zm1-4.85V142.9a3,3,0,0,0-3-3h-3v8h3A3,3,0,0,0,219.62,144.83Zm17.72,13.49a1.11,1.11,0,0,1-2.13.58s-.45-1.69-1.1-4h-6.68c-.65,2.34-1.1,4-1.1,4a1.1,1.1,0,0,1-1.38.76,1.08,1.08,0,0,1-.76-1.34l5.51-20a1.1,1.1,0,0,1,2.13,0Zm-3.86-5.64c-.93-3.41-2-7.4-2.72-9.91-.69,2.51-1.79,6.51-2.72,9.91Zm12.29-15A5.23,5.23,0,0,1,251,142.9v11.43a5.23,5.23,0,0,1-5.23,5.23h-4.13a1.09,1.09,0,0,1-1.1-1.1V138.77a1.09,1.09,0,0,1,1.1-1.1Zm0,2.2h-3v17.49h3a3,3,0,0,0,3-3V142.9A3,3,0,0,0,245.77,139.87Zm14.45,17.62a3,3,0,0,0,3-3V138.63a1.09,1.09,0,0,1,1.1-1.1,1.11,1.11,0,0,1,1.1,1.1v15.83a5.23,5.23,0,1,1-10.46,0V138.63a1.09,1.09,0,0,1,1.1-1.1,1.11,1.11,0,0,1,1.1,1.1v15.83A3,3,0,0,0,260.23,157.5Zm-60.69,78.63A5.52,5.52,0,0,1,194,230.6V214.76l-13.57,5.63a5.51,5.51,0,0,1-4.83-.29l-62.33-35.15a5.52,5.52,0,0,1,.6-9.91l65.17-27a5.52,5.52,0,1,1,4.23,10.2l-54.7,22.7,50.11,28.26L194,202.79V181.55a5.52,5.52,0,0,1,3.41-5.1l18.49-7.67a5.53,5.53,0,0,1,4.83.29l25.47,14.36a5.52,5.52,0,0,1-.6,9.91l-40.55,16.83V230.6A5.52,5.52,0,0,1,199.54,236.13Zm5.52-50.89v13l25.84-10.73L217.66,180Z"/><path class="cls-2" d="M167.49,305.05v2.63H147.2v-2.63Zm-5.7-12.26h-12.5v-2.56H165v2.65a54.33,54.33,0,0,1-.83,10.81l-3.19-.29a52.23,52.23,0,0,0,.8-10.52ZM173.33,303a47.44,47.44,0,0,0,6.24-.51l.24,2.61a47.63,47.63,0,0,1-8,.54h-1.58V296.5h5.36v-3.58h-5.38v-2.58h8.48V299h-5.33Zm15.52-14.86v22.43h-3V299.21h-2v10.33h-3v-21h3v8.06h2v-8.48Zm23.47,15.32H203.7v7.11h-3.21v-7.11H192v-2.61h20.34Zm-2.34-4.8H194.57v-9.3h15.17v2.56H197.85v4.19H210Zm-42.52,28v2.51H147.2v-2.51h8.5v-2h3.22v2Zm-19.41-3.24c4-.29,6.24-1.56,6.89-2.92h-5.9V318h16.59v2.48h-5.92c.64,1.39,2.83,2.63,6.89,2.92l-1,2.41c-4.29-.34-7.09-1.8-8.26-3.87-1.17,2-4,3.56-8.23,3.87Zm4.68,13.88h12.86v2.39H149.54v-5.85h12.3v-1.22H149.51v-2.34H165V336H152.73Zm35.63-19.88v12.06h-3.22v-4.51h-3.55a5.68,5.68,0,0,1-5.8,4.09c-3.36,0-5.89-2.24-5.89-5.36s2.53-5.36,5.89-5.36a5.71,5.71,0,0,1,5.77,4h3.58v-4.95Zm-9.72,6.28a2.84,2.84,0,1,0-2.85,2.68A2.61,2.61,0,0,0,178.64,323.68Zm6.53,6.75h3.19v9.13H173.5v-9.13h3.19v2.14h8.48Zm0,4.58h-8.48v2h8.48Zm27.1-6.16v2.56H192v-2.56ZM194,322.68c0-2.85,3.24-4.63,8.11-4.63s8.13,1.78,8.13,4.63-3.24,4.63-8.13,4.63S194,325.53,194,322.68Zm3.65,14.2H210v2.56H194.47v-6.53h3.21Zm-.34-14.2c0,1.39,1.8,2.07,4.8,2.07s4.82-.68,4.82-2.07-1.8-2.09-4.82-2.09S197.34,321.32,197.34,322.68ZM154.16,350h3.73v2.56H147.17V350H151v-2.78h3.17Zm3.34,8.89c0,3.12-2,5.33-4.92,5.33s-4.92-2.22-4.92-5.33,2-5.36,4.92-5.36S157.5,355.75,157.5,358.89Zm-2.83,0c0-1.68-.88-2.68-2.1-2.68s-2.09,1-2.09,2.68.88,2.66,2.09,2.66S154.68,360.57,154.68,358.89Zm11.76-12.3V369h-3V358.33h-1.7v9.77h-3V347h3v8.72h1.7V346.6Zm15.07,9.57c0,4.95-2.51,8-5.89,8s-5.89-3.09-5.89-8,2.48-8,5.89-8S181.51,351.25,181.51,356.17Zm-3.09,0c0-3.29-1.14-5.09-2.8-5.09s-2.8,1.8-2.8,5.09,1.12,5.12,2.8,5.12S178.42,359.5,178.42,356.17Zm8.74-1.68v3.92h3.09V361h-3.09v8h-3.22V346.62h3.22v5.24h3.09v2.63Zm13.51-1.83c0,3.65,1.8,7.53,5.55,9.09l-1.75,2.53a10.06,10.06,0,0,1-5.38-6,10.73,10.73,0,0,1-5.43,6.58l-1.83-2.56c3.75-1.68,5.58-5.8,5.58-9.62v-1.24h-4.68v-2.65h12.57v2.65h-4.63Zm9.91-6v22.43h-3.22V346.62Z"/><rect class="cls-3" width="360" height="640"/></g></g></svg>